<svg width="320" height="320" viewBox="0 0 320 320" fill="none" xmlns="http://www.w3.org/2000/svg">
<rect width="320" height="320" fill="#000080"/>
<path d="M113.938 126.6C109.438 126.6 105.738 125.3 102.838 122.7C100.038 120 98.6383 116.7 98.6383 112.8C98.6383 108.8 100.038 105.5 102.838 102.9C105.738 100.2 109.438 98.85 113.938 98.85C118.338 98.85 121.938 100.2 124.738 102.9C127.638 105.5 129.088 108.8 129.088 112.8C129.088 116.7 127.638 120 124.738 122.7C121.938 125.3 118.338 126.6 113.938 126.6ZM126.688 135.3V219H101.038V135.3H126.688ZM183.377 220.05C175.677 220.05 168.777 218.8 162.677 216.3C156.577 213.8 151.677 210.1 147.977 205.2C144.377 200.3 142.477 194.4 142.277 187.5H169.577C169.977 191.4 171.327 194.4 173.627 196.5C175.927 198.5 178.927 199.5 182.627 199.5C186.427 199.5 189.427 198.65 191.627 196.95C193.827 195.15 194.927 192.7 194.927 189.6C194.927 187 194.027 184.85 192.227 183.15C190.527 181.45 188.377 180.05 185.777 178.95C183.277 177.85 179.677 176.6 174.977 175.2C168.177 173.1 162.627 171 158.327 168.9C154.027 166.8 150.327 163.7 147.227 159.6C144.127 155.5 142.577 150.15 142.577 143.55C142.577 133.75 146.127 126.1 153.227 120.6C160.327 115 169.577 112.2 180.977 112.2C192.577 112.2 201.927 115 209.027 120.6C216.127 126.1 219.927 133.8 220.427 143.7H192.677C192.477 140.3 191.227 137.65 188.927 135.75C186.627 133.75 183.677 132.75 180.077 132.75C176.977 132.75 174.477 133.6 172.577 135.3C170.677 136.9 169.727 139.25 169.727 142.35C169.727 145.75 171.327 148.4 174.527 150.3C177.727 152.2 182.727 154.25 189.527 156.45C196.327 158.75 201.827 160.95 206.027 163.05C210.327 165.15 214.027 168.2 217.127 172.2C220.227 176.2 221.777 181.35 221.777 187.65C221.777 193.65 220.227 199.1 217.127 204C214.127 208.9 209.727 212.8 203.927 215.7C198.127 218.6 191.277 220.05 183.377 220.05Z" fill="white"/>
</svg>
